<svg class="border shadow-md" viewBox="0 0 765.6 765.6" style="width: 765.6px; height: 765.6px;" xmlns="http://www.w3.org/2000/svg" preserveAspectRatio="none"><rect class="bg" id="bg" x="0" y="0" width="765.6" height="765.6" fill="#ffffff"/><g transform="translate(0 0)"><path d="M115.5,80.5Q104,97,89,109Q74,121,58.5,110.5Q43,100,26,92Q9,84,7.5,63.5Q6,43,25,36.5Q44,30,57.5,26Q71,22,87.5,26Q104,30,115.5,47Q127,64,115.5,80.5Z" fill="#FECEA8"/></g><g transform="translate(31.900000000000002 31.900000000000002)"><path d="M51,39Q48,46,42.5,53.5Q37,61,27.5,58Q18,55,12,48Q6,41,4.5,31Q3,21,12,17Q21,13,28.5,9.5Q36,6,45.5,9Q55,12,54.5,22Q54,32,51,39Z" fill="#000000" opacity="0.3"/></g><g transform="translate(0 127.60000000000001)"><path d="M98,87Q79,110,55.5,98.5Q32,87,28.5,61Q25,35,53,22.5Q81,10,99,37Q117,64,98,87Z" fill="#F03861"/></g><g transform="translate(31.900000000000002 159.5)"><path d="M51.5,42.5Q39,53,25,50Q11,47,9,30.5Q7,14,24,8Q41,2,52.5,17Q64,32,51.5,42.5Z" fill="#000000" opacity="0.3"/></g><g transform="translate(0 255.20000000000002)"><path d="M106.5,79Q88,94,70,105Q52,116,36,100.5Q20,85,20,64Q20,43,35.5,24.5Q51,6,77,10.5Q103,15,114,39.5Q125,64,106.5,79Z" fill="#A2404D"/></g><g transform="translate(31.900000000000002 287.1)"><path d="M52,41.5Q47,51,36,57Q25,63,16,53.5Q7,44,9,33Q11,22,18,12Q25,2,38,5Q51,8,54,20Q57,32,52,41.5Z" fill="#000000" opacity="0.3"/></g><g transform="translate(0 382.8)"><path d="M116,86Q108,108,86,116Q64,124,42,116Q20,108,11,86Q2,64,10.5,41.5Q19,19,41.5,12.5Q64,6,86,13Q108,20,116,42Q124,64,116,86Z" fill="#F03861"/></g><g transform="translate(31.900000000000002 414.7)"><path d="M57.5,42.5Q53,53,42.5,58Q32,63,21.5,58Q11,53,7,42.5Q3,32,7,21.5Q11,11,21.5,6Q32,1,42,6.5Q52,12,57,22Q62,32,57.5,42.5Z" fill="#000000" opacity="0.3"/></g><g transform="translate(0 510.40000000000003)"><path d="M101,88Q79,112,47.5,105.5Q16,99,16.5,64.5Q17,30,50,16.5Q83,3,103,33.5Q123,64,101,88Z" fill="#A2404D"/></g><g transform="translate(31.900000000000002 542.3000000000001)"><path d="M46.5,44Q40,56,28,50Q16,44,14.5,31Q13,18,26,14.5Q39,11,46,21.5Q53,32,46.5,44Z" fill="#000000" opacity="0.3"/></g><g transform="translate(0 638)"><path d="M100.5,85.5Q78,107,48,102Q18,97,19,64.5Q20,32,48.5,28.5Q77,25,100,44.5Q123,64,100.5,85.5Z" fill="#F03861"/></g><g transform="translate(31.900000000000002 669.9)"><path d="M47.5,43.5Q39,55,23,52.5Q7,50,8.5,33Q10,16,24,14.5Q38,13,47,22.5Q56,32,47.5,43.5Z" fill="#000000" opacity="0.3"/></g><g transform="translate(0 765.6)"><path d="M100.5,88.5Q80,113,50,104Q20,95,16.5,61Q13,27,46,22Q79,17,100,40.5Q121,64,100.5,88.5Z" fill="#FF847C"/></g><g transform="translate(31.900000000000002 797.5)"><path d="M47.5,44.5Q40,57,24,53Q8,49,7.5,31.5Q7,14,24,9.5Q41,5,48,18.5Q55,32,47.5,44.5Z" fill="#000000" opacity="0.3"/></g><g transform="translate(127.60000000000001 -63.800000000000004)"><path d="M94,88Q79,112,49,104.5Q19,97,17,62.5Q15,28,48,20Q81,12,95,38Q109,64,94,88Z" fill="#A2404D"/></g><g transform="translate(159.5 -31.900000000000002)"><path d="M51.5,45.5Q41,59,24.5,54Q8,49,9.5,33Q11,17,26,11Q41,5,51.5,18.5Q62,32,51.5,45.5Z" fill="#000000" opacity="0.3"/></g><g transform="translate(127.60000000000001 63.800000000000004)"><path d="M93.5,90Q81,116,52.5,104Q24,92,27.5,66Q31,40,57,22Q83,4,94.5,34Q106,64,93.5,90Z" fill="#FF847C"/></g><g transform="translate(159.5 95.7)"><path d="M48.5,43Q39,54,24.5,51Q10,48,9,31Q8,14,23,13.5Q38,13,48,22.5Q58,32,48.5,43Z" fill="#000000" opacity="0.3"/></g><g transform="translate(127.60000000000001 191.4)"><path d="M102.5,94Q83,124,48.5,112Q14,100,14.5,64.5Q15,29,49,16.5Q83,4,102.5,34Q122,64,102.5,94Z" fill="#A2404D"/></g><g transform="translate(159.5 223.3)"><path d="M52,46.5Q41,61,24,55.5Q7,50,7.5,32Q8,14,25,8Q42,2,52.5,17Q63,32,52,46.5Z" fill="#000000" opacity="0.3"/></g><g transform="translate(127.60000000000001 319)"><path d="M103,83Q94,102,74.5,102Q55,102,40.5,92Q26,82,19.5,60.5Q13,39,31.5,20.5Q50,2,76,9Q102,16,107,40Q112,64,103,83Z" fill="#FF847C"/></g><g transform="translate(159.5 350.9)"><path d="M53.5,42Q48,52,37,55Q26,58,18.5,50Q11,42,9.5,31Q8,20,16.5,11Q25,2,36.5,7Q48,12,53.5,22Q59,32,53.5,42Z" fill="#000000" opacity="0.3"/></g><g transform="translate(127.60000000000001 446.6)"><path d="M96,85Q78,106,50,100Q22,94,22,63.5Q22,33,49.5,28Q77,23,95.5,43.5Q114,64,96,85Z" fill="#FECEA8"/></g><g transform="translate(159.5 478.5)"><path d="M47.5,42Q38,52,23.5,50.5Q9,49,11,33.5Q13,18,26.5,12.5Q40,7,48.5,19.5Q57,32,47.5,42Z" fill="#000000" opacity="0.3"/></g><g transform="translate(127.60000000000001 574.2)"><path d="M101,90Q94,116,66.5,111Q39,106,22.5,85Q6,64,22,41Q38,18,64,18Q90,18,99,41Q108,64,101,90Z" fill="#F03861"/></g><g transform="translate(159.5 606.1)"><path d="M49.5,41.5Q43,51,32.5,50.5Q22,50,16,41Q10,32,14,20Q18,8,31.5,8.5Q45,9,50.5,20.5Q56,32,49.5,41.5Z" fill="#000000" opacity="0.3"/></g><g transform="translate(127.60000000000001 701.8000000000001)"><path d="M98.5,90Q81,116,47.5,108Q14,100,21.5,69.5Q29,39,55,24.5Q81,10,98.5,37Q116,64,98.5,90Z" fill="#A2404D"/></g><g transform="translate(159.5 733.7)"><path d="M46,42Q38,52,23,50.5Q8,49,8.5,32Q9,15,24.5,11.5Q40,8,47,20Q54,32,46,42Z" fill="#000000" opacity="0.3"/></g><g transform="translate(255.20000000000002 0)"><path d="M93,85.5Q78,107,52,99.5Q26,92,29,66.5Q32,41,56,27Q80,13,94,38.5Q108,64,93,85.5Z" fill="#FECEA8"/></g><g transform="translate(287.1 31.900000000000002)"><path d="M51,46.5Q41,61,27,53Q13,45,13.5,32Q14,19,26.5,14.5Q39,10,50,21Q61,32,51,46.5Z" fill="#000000" opacity="0.3"/></g><g transform="translate(255.20000000000002 127.60000000000001)"><path d="M99,87Q79,110,47.5,104Q16,98,15.5,63Q15,28,46.5,24.5Q78,21,98.5,42.5Q119,64,99,87Z" fill="#F03861"/></g><g transform="translate(287.1 159.5)"><path d="M51,43Q39,54,23.5,51.5Q8,49,9.5,33Q11,17,25.5,12Q40,7,51.5,19.5Q63,32,51,43Z" fill="#000000" opacity="0.3"/></g><g transform="translate(255.20000000000002 255.20000000000002)"><path d="M99,87Q79,110,47.5,104Q16,98,15.5,63Q15,28,46.5,24.5Q78,21,98.5,42.5Q119,64,99,87Z" fill="#FF847C"/></g><g transform="translate(287.1 287.1)"><path d="M51,43.5Q39,55,24.5,51.5Q10,48,12,33.5Q14,19,27.5,12Q41,5,52,18.5Q63,32,51,43.5Z" fill="#000000" opacity="0.3"/></g><g transform="translate(255.20000000000002 382.8)"><path d="M115,88.5Q103,113,76.5,119.5Q50,126,30,108Q10,90,10.5,64Q11,38,30.5,20Q50,2,75.5,10Q101,18,114,41Q127,64,115,88.5Z" fill="#A2404D"/></g><g transform="translate(287.1 414.7)"><path d="M57,43.5Q50,55,37.5,57.5Q25,60,15,52.5Q5,45,5.5,32Q6,19,15.5,10Q25,1,38,4.5Q51,8,57.5,20Q64,32,57,43.5Z" fill="#000000" opacity="0.3"/></g><g transform="translate(255.20000000000002 510.40000000000003)"><path d="M91,82.5Q76,101,54,94Q32,87,25.5,59.5Q19,32,48,27.5Q77,23,91.5,43.5Q106,64,91,82.5Z" fill="#FECEA8"/></g><g transform="translate(287.1 542.3000000000001)"><path d="M49,43Q39,54,27,49Q15,44,12.5,30Q10,16,24.5,12.5Q39,9,49,20.5Q59,32,49,43Z" fill="#000000" opacity="0.3"/></g><g transform="translate(255.20000000000002 638)"><path d="M102,84Q96,104,74.5,107.5Q53,111,30,101Q7,91,10,65Q13,39,33,28.5Q53,18,74,21.5Q95,25,101.5,44.5Q108,64,102,84Z" fill="#FECEA8"/></g><g transform="translate(287.1 669.9)"><path d="M54,42Q48,52,36.5,56.5Q25,61,14.5,53Q4,45,6,32.5Q8,20,17.5,14Q27,8,37.5,10Q48,12,54,22Q60,32,54,42Z" fill="#000000" opacity="0.3"/></g><g transform="translate(255.20000000000002 765.6)"><path d="M90,83.5Q77,103,45,102Q13,101,18,67.5Q23,34,49.5,29.5Q76,25,89.5,44.5Q103,64,90,83.5Z" fill="#FECEA8"/></g><g transform="translate(287.1 797.5)"><path d="M49.5,45.5Q41,59,28.5,51.5Q16,44,12.5,29.5Q9,15,25,9Q41,3,49.5,17.5Q58,32,49.5,45.5Z" fill="#000000" opacity="0.3"/></g><g transform="translate(382.8 -63.800000000000004)"><path d="M102,84.5Q77,105,45,102.5Q13,100,13.5,63.5Q14,27,47,21Q80,15,103.5,39.5Q127,64,102,84.5Z" fill="#FF847C"/></g><g transform="translate(414.7 -31.900000000000002)"><path d="M50,45.5Q41,59,26.5,53Q12,47,10.5,31Q9,15,24,13Q39,11,49,21.5Q59,32,50,45.5Z" fill="#000000" opacity="0.3"/></g><g transform="translate(382.8 63.800000000000004)"><path d="M101.5,86Q78,108,53.5,98.5Q29,89,24,60Q19,31,49.5,23Q80,15,102.5,39.5Q125,64,101.5,86Z" fill="#F03861"/></g><g transform="translate(414.7 95.7)"><path d="M46.5,44Q40,56,23.5,53Q7,50,10,34Q13,18,27.5,10Q42,2,47.5,17Q53,32,46.5,44Z" fill="#000000" opacity="0.3"/></g><g transform="translate(382.8 191.4)"><path d="M100,84Q77,104,53.5,96.5Q30,89,24,60Q18,31,49,22.5Q80,14,101.5,39Q123,64,100,84Z" fill="#FECEA8"/></g><g transform="translate(414.7 223.3)"><path d="M47.5,44Q40,56,25,52Q10,48,13,34Q16,20,27.5,15.5Q39,11,47,21.5Q55,32,47.5,44Z" fill="#000000" opacity="0.3"/></g><g transform="translate(382.8 319)"><path d="M104,87Q91,110,66,106Q41,102,24,83Q7,64,21.5,40Q36,16,62,18.5Q88,21,102.5,42.5Q117,64,104,87Z" fill="#FECEA8"/></g><g transform="translate(414.7 350.9)"><path d="M54.5,44Q46,56,34,53Q22,50,15,41Q8,32,13.5,21Q19,10,32.5,8.5Q46,7,54.5,19.5Q63,32,54.5,44Z" fill="#000000" opacity="0.3"/></g><g transform="translate(382.8 446.6)"><path d="M96,82.5Q85,101,58.5,109.5Q32,118,25.5,91Q19,64,25.5,36.5Q32,9,58,18.5Q84,28,95.5,46Q107,64,96,82.5Z" fill="#A2404D"/></g><g transform="translate(414.7 478.5)"><path d="M53.5,45Q47,58,34.5,54Q22,50,16,41Q10,32,13.5,19Q17,6,30,9Q43,12,51.5,22Q60,32,53.5,45Z" fill="#000000" opacity="0.3"/></g><g transform="translate(382.8 574.2)"><path d="M93.5,84Q77,104,45,102.5Q13,101,21,70Q29,39,54.5,27Q80,15,95,39.5Q110,64,93.5,84Z" fill="#FECEA8"/></g><g transform="translate(414.7 606.1)"><path d="M47,44.5Q40,57,25.5,52Q11,47,10.5,31.5Q10,16,26,9Q42,2,48,17Q54,32,47,44.5Z" fill="#000000" opacity="0.3"/></g><g transform="translate(382.8 701.8000000000001)"><path d="M101,84Q77,104,51,98Q25,92,21,61Q17,30,46.5,28.5Q76,27,100.5,45.5Q125,64,101,84Z" fill="#FECEA8"/></g><g transform="translate(414.7 733.7)"><path d="M51.5,45.5Q41,59,24,54.5Q7,50,9.5,34Q12,18,25.5,14.5Q39,11,50.5,21.5Q62,32,51.5,45.5Z" fill="#000000" opacity="0.3"/></g><g transform="translate(510.40000000000003 0)"><path d="M93.5,93.5Q83,123,50.5,110Q18,97,24,68Q30,39,56,23Q82,7,93,35.5Q104,64,93.5,93.5Z" fill="#A2404D"/></g><g transform="translate(542.3000000000001 31.900000000000002)"><path d="M46.5,44.5Q40,57,24.5,53Q9,49,8.5,31.5Q8,14,24,10Q40,6,46.5,19Q53,32,46.5,44.5Z" fill="#000000" opacity="0.3"/></g><g transform="translate(510.40000000000003 127.60000000000001)"><path d="M103.5,77Q95,90,83.5,99.5Q72,109,53.5,111.5Q35,114,26,97.5Q17,81,13.5,62.5Q10,44,22.5,29Q35,14,53,17.5Q71,21,84.5,28Q98,35,105,49.5Q112,64,103.5,77Z" fill="#FECEA8"/></g><g transform="translate(542.3000000000001 159.5)"><path d="M55,42Q56,52,46.5,56.5Q37,61,29,56.5Q21,52,17,45.5Q13,39,12,31.5Q11,24,15.5,18Q20,12,28,11.5Q36,11,42.5,14Q49,17,51.5,24.5Q54,32,55,42Z" fill="#000000" opacity="0.3"/></g><g transform="translate(510.40000000000003 255.20000000000002)"><path d="M102.5,89.5Q80,115,51,104.5Q22,94,21.5,63.5Q21,33,51.5,20Q82,7,103.5,35.5Q125,64,102.5,89.5Z" fill="#F03861"/></g><g transform="translate(542.3000000000001 287.1)"><path d="M49.5,44.5Q40,57,27,51Q14,45,11.5,30Q9,15,24,12Q39,9,49,20.5Q59,32,49.5,44.5Z" fill="#000000" opacity="0.3"/></g><g transform="translate(510.40000000000003 382.8)"><path d="M103.5,84Q96,104,75.5,102.5Q55,101,38.5,92.5Q22,84,17,61.5Q12,39,31,21.5Q50,4,74.5,12Q99,20,105,42Q111,64,103.5,84Z" fill="#FF847C"/></g><g transform="translate(542.3000000000001 414.7)"><path d="M51.5,43Q49,54,37.5,55Q26,56,15.5,50.5Q5,45,7.5,33Q10,21,18.5,15Q27,9,38.5,9Q50,9,52,20.5Q54,32,51.5,43Z" fill="#000000" opacity="0.3"/></g><g transform="translate(510.40000000000003 510.40000000000003)"><path d="M97.5,89.5Q81,115,55,102Q29,89,28.5,63.5Q28,38,54,26Q80,14,97,39Q114,64,97.5,89.5Z" fill="#FECEA8"/></g><g transform="translate(542.3000000000001 542.3000000000001)"><path d="M50.5,44Q40,56,26,51Q12,46,14,33.5Q16,21,27,16.5Q38,12,49.5,22Q61,32,50.5,44Z" fill="#000000" opacity="0.3"/></g><g transform="translate(510.40000000000003 638)"><path d="M92.5,91.5Q82,119,53.5,105.5Q25,92,27.5,66Q30,40,54.5,28.5Q79,17,91,40.5Q103,64,92.5,91.5Z" fill="#FF847C"/></g><g transform="translate(542.3000000000001 669.9)"><path d="M51,44Q40,56,25,51.5Q10,47,13,33.5Q16,20,28.5,12Q41,4,51.5,18Q62,32,51,44Z" fill="#000000" opacity="0.3"/></g><g transform="translate(510.40000000000003 765.6)"><path d="M99.5,87.5Q91,111,67.5,105Q44,99,30,81.5Q16,64,28.5,44.5Q41,25,64.5,23.5Q88,22,98,43Q108,64,99.5,87.5Z" fill="#FECEA8"/></g><g transform="translate(542.3000000000001 797.5)"><path d="M52.5,41Q42,50,31.5,50.5Q21,51,14.5,41.5Q8,32,12.5,19Q17,6,29,10.5Q41,15,52,23.5Q63,32,52.5,41Z" fill="#000000" opacity="0.3"/></g><g transform="translate(638 -63.800000000000004)"><path d="M110,82.5Q93,101,73.5,104.5Q54,108,39,95.5Q24,83,20.5,62Q17,41,34.5,26.5Q52,12,71,21.5Q90,31,108.5,47.5Q127,64,110,82.5Z" fill="#FF847C"/></g><g transform="translate(669.9 -31.900000000000002)"><path d="M57,43Q50,54,38,56.5Q26,59,20,49.5Q14,40,11,30Q8,20,16.5,11.5Q25,3,38,5.5Q51,8,57.5,20Q64,32,57,43Z" fill="#000000" opacity="0.3"/></g><g transform="translate(638 63.800000000000004)"><path d="M93.5,89Q80,114,50,105Q20,96,23,66Q26,36,51.5,29.5Q77,23,92,43.5Q107,64,93.5,89Z" fill="#FF847C"/></g><g transform="translate(669.9 95.7)"><path d="M49.5,44.5Q40,57,23.5,53.5Q7,50,7.5,32.5Q8,15,24,10.5Q40,6,49.5,19Q59,32,49.5,44.5Z" fill="#000000" opacity="0.3"/></g><g transform="translate(638 191.4)"><path d="M96.5,80Q90,96,72.5,99Q55,102,39,92.5Q23,83,25,64.5Q27,46,40,32Q53,18,74,21.5Q95,25,99,44.5Q103,64,96.5,80Z" fill="#F03861"/></g><g transform="translate(669.9 223.3)"><path d="M53.5,41Q46,50,36,53.5Q26,57,16.5,50.5Q7,44,5.5,31Q4,18,15,11.5Q26,5,35.5,10.5Q45,16,53,24Q61,32,53.5,41Z" fill="#000000" opacity="0.3"/></g><g transform="translate(638 319)"><path d="M101.5,86Q78,108,53,99Q28,90,29.5,65Q31,40,54,32Q77,24,101,44Q125,64,101.5,86Z" fill="#A2404D"/></g><g transform="translate(669.9 350.9)"><path d="M47,44.5Q40,57,23.5,53.5Q7,50,7,32Q7,14,22.5,13Q38,12,46,22Q54,32,47,44.5Z" fill="#000000" opacity="0.3"/></g><g transform="translate(638 446.6)"><path d="M109.5,84Q104,104,84,111Q64,118,45,109.5Q26,101,16,82.5Q6,64,17,46Q28,28,46,19Q64,10,85,15.5Q106,21,110.5,42.5Q115,64,109.5,84Z" fill="#F03861"/></g><g transform="translate(669.9 478.5)"><path d="M55,42.5Q53,53,42.5,54.5Q32,56,23,53Q14,50,11,41Q8,32,12.5,24.5Q17,17,24.5,11Q32,5,39,11.5Q46,18,51.5,25Q57,32,55,42.5Z" fill="#000000" opacity="0.3"/></g><g transform="translate(638 574.2)"><path d="M94.5,83.5Q77,103,52,97Q27,91,22,60.5Q17,30,48,23Q79,16,95.5,40Q112,64,94.5,83.5Z" fill="#A2404D"/></g><g transform="translate(669.9 606.1)"><path d="M49.5,45Q41,58,26,52.5Q11,47,13.5,33.5Q16,20,27,16Q38,12,48,22Q58,32,49.5,45Z" fill="#000000" opacity="0.3"/></g><g transform="translate(638 701.8000000000001)"><path d="M96.5,87.5Q79,111,55.5,99Q32,87,24.5,58.5Q17,30,50,17.5Q83,5,98.5,34.5Q114,64,96.5,87.5Z" fill="#F03861"/></g><g transform="translate(669.9 733.7)"><path d="M48,46.5Q41,61,23.5,55.5Q6,50,9.5,34Q13,18,25.5,15Q38,12,46.5,22Q55,32,48,46.5Z" fill="#000000" opacity="0.3"/></g><g transform="translate(765.6 0)"><path d="M111,83.5Q103,103,83.5,107.5Q64,112,43.5,108.5Q23,105,14,84.5Q5,64,14.5,44Q24,24,44,20Q64,16,84,19.5Q104,23,111.5,43.5Q119,64,111,83.5Z" fill="#A2404D"/></g><g transform="translate(797.5 31.900000000000002)"><path d="M55,39.5Q47,47,39.5,53Q32,59,22,55.5Q12,52,12,42Q12,32,13.5,23.5Q15,15,23.5,11.5Q32,8,40,12Q48,16,55.5,24Q63,32,55,39.5Z" fill="#000000" opacity="0.3"/></g><g transform="translate(765.6 127.60000000000001)"><path d="M95.5,91.5Q82,119,52,106.5Q22,94,19,61.5Q16,29,48.5,19.5Q81,10,95,37Q109,64,95.5,91.5Z" fill="#FECEA8"/></g><g transform="translate(797.5 159.5)"><path d="M50,42Q38,52,26.5,48Q15,44,14,31Q13,18,27.5,10Q42,2,52,17Q62,32,50,42Z" fill="#000000" opacity="0.3"/></g><g transform="translate(765.6 255.20000000000002)"><path d="M108,88.5Q92,113,62,116Q32,119,19.5,91.5Q7,64,20,37.5Q33,11,63,12Q93,13,108.5,38.5Q124,64,108,88.5Z" fill="#FECEA8"/></g><g transform="translate(797.5 287.1)"><path d="M53,43.5Q45,55,30.5,57Q16,59,8.5,45.5Q1,32,10,20.5Q19,9,33.5,7Q48,5,54.5,18.5Q61,32,53,43.5Z" fill="#000000" opacity="0.3"/></g><g transform="translate(765.6 382.8)"><path d="M94,86.5Q78,109,49,102.5Q20,96,25,67.5Q30,39,56,23.5Q82,8,96,36Q110,64,94,86.5Z" fill="#F03861"/></g><g transform="translate(797.5 414.7)"><path d="M49.5,44Q40,56,25.5,51.5Q11,47,11.5,32.5Q12,18,26.5,10.5Q41,3,50,17.5Q59,32,49.5,44Z" fill="#000000" opacity="0.3"/></g><g transform="translate(765.6 510.40000000000003)"><path d="M116,83Q110,102,92,112.5Q74,123,54,119Q34,115,20,100Q6,85,5.5,63.5Q5,42,18.5,25.5Q32,9,53.5,6Q75,3,93,13.5Q111,24,116.5,44Q122,64,116,83Z" fill="#FF847C"/></g><g transform="translate(797.5 542.3000000000001)"><path d="M58.5,41.5Q55,51,46,55.5Q37,60,26.5,59.5Q16,59,10.5,50.5Q5,42,4.5,32Q4,22,11,14.5Q18,7,27.5,5Q37,3,46,7.5Q55,12,58.5,22Q62,32,58.5,41.5Z" fill="#000000" opacity="0.3"/></g><g transform="translate(765.6 638)"><path d="M96.5,92.5Q82,121,50.5,109Q19,97,17,62.5Q15,28,49,17Q83,6,97,35Q111,64,96.5,92.5Z" fill="#F03861"/></g><g transform="translate(797.5 669.9)"><path d="M51.5,43Q39,54,26.5,49.5Q14,45,14,32Q14,19,27,13Q40,7,52,19.5Q64,32,51.5,43Z" fill="#000000" opacity="0.3"/></g><g transform="translate(765.6 765.6)"><path d="M99.5,88.5Q80,113,50.5,104Q21,95,23.5,66Q26,37,53,24.5Q80,12,99.5,38Q119,64,99.5,88.5Z" fill="#FECEA8"/></g><g transform="translate(797.5 797.5)"><path d="M52,44.5Q40,57,24.5,52.5Q9,48,8,31Q7,14,23,13Q39,12,51.5,22Q64,32,52,44.5Z" fill="#000000" opacity="0.3"/></g></svg>