<?xml version="1.0" encoding="UTF-8" standalone="no"?>
<svg
   height="261.72906"
   width="261.72906"
   viewBox="0 0 245.372 245.37072"
   version="1.1"
   id="svg4"
   sodipodi:docname="itch-io.svg"
   inkscape:version="1.1.2 (b8e25be833, 2022-02-05)"
   xmlns:inkscape="http://www.inkscape.org/namespaces/inkscape"
   xmlns:sodipodi="http://sodipodi.sourceforge.net/DTD/sodipodi-0.dtd"
   xmlns="http://www.w3.org/2000/svg"
   xmlns:svg="http://www.w3.org/2000/svg"
   xmlns:rdf="http://www.w3.org/1999/02/22-rdf-syntax-ns#"
   xmlns:cc="http://creativecommons.org/ns#"
   xmlns:dc="http://purl.org/dc/elements/1.1/">
  <metadata
     id="metadata10">
    <rdf:RDF>
      <cc:Work
         rdf:about="">
        <dc:format>image/svg+xml</dc:format>
        <dc:type
           rdf:resource="http://purl.org/dc/dcmitype/StillImage" />
      </cc:Work>
    </rdf:RDF>
  </metadata>
  <defs
     id="defs8" />
  <sodipodi:namedview
     pagecolor="#ffffff"
     bordercolor="#666666"
     borderopacity="1"
     objecttolerance="10"
     gridtolerance="10"
     guidetolerance="10"
     inkscape:pageopacity="0"
     inkscape:pageshadow="2"
     inkscape:window-width="1920"
     inkscape:window-height="1001"
     id="namedview6"
     showgrid="false"
     inkscape:zoom="1.0023275"
     inkscape:cx="131.19464"
     inkscape:cy="131.19464"
     inkscape:window-x="-9"
     inkscape:window-y="-9"
     inkscape:window-maximized="1"
     inkscape:current-layer="svg4"
     inkscape:pagecheckerboard="0"
     fit-margin-top="0"
     fit-margin-left="0"
     fit-margin-right="0"
     fit-margin-bottom="0" />
  <path
     d="m 31.99,13.683471 c -10.703,6.355 -31.79,30.58 -31.99,36.933 v 10.516 c 0,13.33 12.46,25.046 23.773,25.046 13.584,0 24.902,-11.258 24.903,-24.62 0,13.362 10.93,24.62 24.515,24.62 13.586,0 24.165,-11.258 24.165,-24.62 0,13.362 11.622,24.62 25.207,24.62 h 0.246 c 13.586,0 25.208,-11.258 25.208,-24.62 0,13.362 10.58,24.62 24.164,24.62 13.585,0 24.515,-11.258 24.515,-24.62 0,13.362 11.32,24.62 24.903,24.62 11.313,0 23.773,-11.714 23.773,-25.046 v -10.516 c -0.2,-6.354 -21.287,-30.58 -31.988,-36.933 -33.266,-1.168 -56.328,-1.37 -90.699,-1.365 -34.37,0.003 -81.228,0.54 -90.697,1.365 z m 65.194,66.217 a 28.025,28.025 0 0 1 -4.78,6.155 c -5.128,5.014 -12.157,8.122 -19.906,8.122 a 28.482,28.482 0 0 1 -19.948,-8.126 c -1.858,-1.82 -3.27,-3.766 -4.563,-6.032 l -0.006,0.004 c -1.292,2.27 -3.092,4.215 -4.954,6.037 a 28.5,28.5 0 0 1 -19.948,8.12 c -0.934,0 -1.906,-0.258 -2.692,-0.528 -1.092,11.371999 -1.553,22.239999 -1.716,30.163999 l -0.002,0.045 c -0.02,4.024 -0.04,7.333 -0.06,11.93 0.21,23.86 -2.363,77.334 10.52,90.473 19.964,4.655 56.7,6.775 93.555,6.788 h 0.006 c 36.854,-0.013 73.59,-2.133 93.554,-6.788 12.883,-13.14 10.31,-66.614 10.52,-90.474 -0.022,-4.596 -0.04,-7.905 -0.06,-11.93 l -0.003,-0.045 c -0.162,-7.926 -0.623,-18.793 -1.715,-30.164999 -0.786,0.27 -1.757,0.528 -2.692,0.528 a 28.5,28.5 0 0 1 -19.948,-8.12 c -1.862,-1.822 -3.662,-3.766 -4.955,-6.037 l -0.006,-0.004 c -1.294,2.266 -2.705,4.213 -4.563,6.032 a 28.48,28.48 0 0 1 -19.947,8.125 c -7.748,0 -14.778,-3.11 -19.906,-8.123 a 28.025,28.025 0 0 1 -4.78,-6.155 27.99,27.99 0 0 1 -4.736,6.155 28.49,28.49 0 0 1 -19.95,8.124 c -0.27,0 -0.54,-0.012 -0.81,-0.02 h -0.007 c -0.27,0.008 -0.54,0.02 -0.813,0.02 a 28.49,28.49 0 0 1 -19.95,-8.123 27.992,27.992 0 0 1 -4.736,-6.155 z m -20.486,26.489999 -0.002,0.01 h 0.015 c 8.113,0.017 15.32,0 24.25,9.746 7.028,-0.737 14.372,-1.105 21.722,-1.094 h 0.006 c 7.35,-0.01 14.694,0.357 21.723,1.094 8.93,-9.747 16.137,-9.73 24.25,-9.746 h 0.014 l -0.002,-0.01 c 3.833,0 19.166,0 29.85,30.007 l 11.476,41.165 c 8.504,30.624 -2.723,31.373 -16.727,31.4 -20.768,-0.773 -32.267,-15.855 -32.267,-30.935 -11.496,1.884 -24.907,2.826 -38.318,2.827 h -0.006 c -13.412,0 -26.823,-0.943 -38.318,-2.827 0,15.08 -11.5,30.162 -32.267,30.935 -14.004,-0.027 -25.23,-0.775 -16.726,-31.4 l 11.479,-41.164 c 10.684,-30.007 26.017,-30.007 29.85,-30.007 z m 45.985,23.582 v 0.006 c -0.02,0.02 -21.863,20.08 -25.79,27.215 l 14.304,-0.573 v 12.474 c 0,0.584 5.74,0.346 11.486,0.08 h 0.006 c 5.744,0.266 11.485,0.504 11.485,-0.08 v -12.474 l 14.304,0.573 c -3.928,-7.135 -25.79,-27.215 -25.79,-27.215 v -0.006 l -0.003,0.002 z"
     color="#000000"
     id="path2"
     style="fill:#fe2349;fill-opacity:1" />
</svg>
