<svg xmlns="http://www.w3.org/2000/svg" version="1.1" xmlns:xlink="http://www.w3.org/1999/xlink" xmlns:svgjs="http://svgjs.dev/svgjs" width="2000" height="2000" preserveAspectRatio="none" viewBox="0 0 2000 2000"><g mask="url(&quot;#SvgjsMask1084&quot;)" fill="none"><rect width="2000" height="2000" x="0" y="0" fill="rgba(29, 191, 115, 1)"></rect><path d="M1729 162L1728 -1289" stroke-width="6" stroke="url(&quot;#SvgjsLinearGradient1085&quot;)" stroke-linecap="round" class="Up"></path><path d="M1361 984L1360 83" stroke-width="8" stroke="url(&quot;#SvgjsLinearGradient1086&quot;)" stroke-linecap="round" class="Down"></path><path d="M1694 567L1693 -64" stroke-width="10" stroke="url(&quot;#SvgjsLinearGradient1085&quot;)" stroke-linecap="round" class="Up"></path><path d="M466 1751L465 2820" stroke-width="6" stroke="url(&quot;#SvgjsLinearGradient1085&quot;)" stroke-linecap="round" class="Up"></path><path d="M1844 245L1843 1719" stroke-width="6" stroke="url(&quot;#SvgjsLinearGradient1085&quot;)" stroke-linecap="round" class="Up"></path><path d="M1048 1681L1047 952" stroke-width="10" stroke="url(&quot;#SvgjsLinearGradient1086&quot;)" stroke-linecap="round" class="Down"></path><path d="M1075 1799L1074 696" stroke-width="6" stroke="url(&quot;#SvgjsLinearGradient1085&quot;)" stroke-linecap="round" class="Up"></path><path d="M1886 1199L1885 459" stroke-width="10" stroke="url(&quot;#SvgjsLinearGradient1085&quot;)" stroke-linecap="round" class="Up"></path><path d="M1923 879L1922 1724" stroke-width="8" stroke="url(&quot;#SvgjsLinearGradient1085&quot;)" stroke-linecap="round" class="Up"></path><path d="M84 1943L83 2533" stroke-width="8" stroke="url(&quot;#SvgjsLinearGradient1085&quot;)" stroke-linecap="round" class="Up"></path><path d="M1995 1732L1994 3131" stroke-width="10" stroke="url(&quot;#SvgjsLinearGradient1086&quot;)" stroke-linecap="round" class="Down"></path><path d="M183 63L182 -744" stroke-width="8" stroke="url(&quot;#SvgjsLinearGradient1086&quot;)" stroke-linecap="round" class="Down"></path><path d="M761 576L760 1315" stroke-width="10" stroke="url(&quot;#SvgjsLinearGradient1086&quot;)" stroke-linecap="round" class="Down"></path><path d="M636 32L635 -1449" stroke-width="10" stroke="url(&quot;#SvgjsLinearGradient1086&quot;)" stroke-linecap="round" class="Down"></path><path d="M1503 1775L1502 2631" stroke-width="6" stroke="url(&quot;#SvgjsLinearGradient1086&quot;)" stroke-linecap="round" class="Down"></path><path d="M1545 1066L1544 109" stroke-width="8" stroke="url(&quot;#SvgjsLinearGradient1086&quot;)" stroke-linecap="round" class="Down"></path><path d="M390 443L389 1624" stroke-width="8" stroke="url(&quot;#SvgjsLinearGradient1086&quot;)" stroke-linecap="round" class="Down"></path><path d="M341 1034L340 1840" stroke-width="6" stroke="url(&quot;#SvgjsLinearGradient1085&quot;)" stroke-linecap="round" class="Up"></path><path d="M369 470L368 -710" stroke-width="6" stroke="url(&quot;#SvgjsLinearGradient1085&quot;)" stroke-linecap="round" class="Up"></path><path d="M871 1149L870 2369" stroke-width="8" stroke="url(&quot;#SvgjsLinearGradient1086&quot;)" stroke-linecap="round" class="Down"></path><path d="M1674 1830L1673 2418" stroke-width="8" stroke="url(&quot;#SvgjsLinearGradient1086&quot;)" stroke-linecap="round" class="Down"></path><path d="M1298 1936L1297 2464" stroke-width="6" stroke="url(&quot;#SvgjsLinearGradient1086&quot;)" stroke-linecap="round" class="Down"></path><path d="M804 310L803 -1044" stroke-width="8" stroke="url(&quot;#SvgjsLinearGradient1085&quot;)" stroke-linecap="round" class="Up"></path><path d="M541 1108L540 2438" stroke-width="10" stroke="url(&quot;#SvgjsLinearGradient1085&quot;)" stroke-linecap="round" class="Up"></path><path d="M582 1271L581 24" stroke-width="6" stroke="url(&quot;#SvgjsLinearGradient1086&quot;)" stroke-linecap="round" class="Down"></path><path d="M1394 747L1393 -441" stroke-width="6" stroke="url(&quot;#SvgjsLinearGradient1085&quot;)" stroke-linecap="round" class="Up"></path><path d="M1522 641L1521 1441" stroke-width="10" stroke="url(&quot;#SvgjsLinearGradient1086&quot;)" stroke-linecap="round" class="Down"></path><path d="M1243 876L1242 335" stroke-width="8" stroke="url(&quot;#SvgjsLinearGradient1085&quot;)" stroke-linecap="round" class="Up"></path><path d="M905 554L904 -209" stroke-width="10" stroke="url(&quot;#SvgjsLinearGradient1086&quot;)" stroke-linecap="round" class="Down"></path><path d="M1997 1793L1996 1018" stroke-width="10" stroke="url(&quot;#SvgjsLinearGradient1085&quot;)" stroke-linecap="round" class="Up"></path><path d="M1039 1854L1038 3189" stroke-width="8" stroke="url(&quot;#SvgjsLinearGradient1085&quot;)" stroke-linecap="round" class="Up"></path><path d="M120 886L119 2174" stroke-width="10" stroke="url(&quot;#SvgjsLinearGradient1085&quot;)" stroke-linecap="round" class="Up"></path><path d="M1310 1456L1309 2422" stroke-width="8" stroke="url(&quot;#SvgjsLinearGradient1085&quot;)" stroke-linecap="round" class="Up"></path><path d="M485 1642L484 446" stroke-width="8" stroke="url(&quot;#SvgjsLinearGradient1085&quot;)" stroke-linecap="round" class="Up"></path><path d="M20 1527L19 59" stroke-width="10" stroke="url(&quot;#SvgjsLinearGradient1086&quot;)" stroke-linecap="round" class="Down"></path><path d="M58 1681L57 2695" stroke-width="8" stroke="url(&quot;#SvgjsLinearGradient1085&quot;)" stroke-linecap="round" class="Up"></path><path d="M708 681L707 -762" stroke-width="8" stroke="url(&quot;#SvgjsLinearGradient1085&quot;)" stroke-linecap="round" class="Up"></path><path d="M1892 1265L1891 2078" stroke-width="6" stroke="url(&quot;#SvgjsLinearGradient1086&quot;)" stroke-linecap="round" class="Down"></path><path d="M1386 1623L1385 1019" stroke-width="6" stroke="url(&quot;#SvgjsLinearGradient1086&quot;)" stroke-linecap="round" class="Down"></path><path d="M1138 1132L1137 1968" stroke-width="10" stroke="url(&quot;#SvgjsLinearGradient1085&quot;)" stroke-linecap="round" class="Up"></path><path d="M966 1759L965 410" stroke-width="10" stroke="url(&quot;#SvgjsLinearGradient1086&quot;)" stroke-linecap="round" class="Down"></path><path d="M1589 1395L1588 2637" stroke-width="10" stroke="url(&quot;#SvgjsLinearGradient1086&quot;)" stroke-linecap="round" class="Down"></path><path d="M991 622L990 -537" stroke-width="8" stroke="url(&quot;#SvgjsLinearGradient1086&quot;)" stroke-linecap="round" class="Down"></path><path d="M426 771L425 -661" stroke-width="10" stroke="url(&quot;#SvgjsLinearGradient1085&quot;)" stroke-linecap="round" class="Up"></path><path d="M1021 1098L1020 -67" stroke-width="6" stroke="url(&quot;#SvgjsLinearGradient1086&quot;)" stroke-linecap="round" class="Down"></path><path d="M416 705L415 1601" stroke-width="10" stroke="url(&quot;#SvgjsLinearGradient1085&quot;)" stroke-linecap="round" class="Up"></path><path d="M1940 1878L1939 2425" stroke-width="10" stroke="url(&quot;#SvgjsLinearGradient1086&quot;)" stroke-linecap="round" class="Down"></path><path d="M1271 133L1270 969" stroke-width="6" stroke="url(&quot;#SvgjsLinearGradient1086&quot;)" stroke-linecap="round" class="Down"></path><path d="M1117 1648L1116 2863" stroke-width="10" stroke="url(&quot;#SvgjsLinearGradient1085&quot;)" stroke-linecap="round" class="Up"></path><path d="M690 930L689 2137" stroke-width="6" stroke="url(&quot;#SvgjsLinearGradient1086&quot;)" stroke-linecap="round" class="Down"></path></g><defs><mask id="SvgjsMask1084"><rect width="2000" height="2000" fill="#ffffff"></rect></mask><linearGradient x1="0%" y1="100%" x2="0%" y2="0%" id="SvgjsLinearGradient1085"><stop stop-color="rgba(43, 255, 155, 0)" offset="0"></stop><stop stop-color="rgba(43, 255, 155, 1)" offset="1"></stop></linearGradient><linearGradient x1="0%" y1="0%" x2="0%" y2="100%" id="SvgjsLinearGradient1086"><stop stop-color="rgba(43, 255, 155, 0)" offset="0"></stop><stop stop-color="rgba(43, 255, 155, 1)" offset="1"></stop></linearGradient></defs></svg>