<svg xmlns="http://www.w3.org/2000/svg" version="1.1" xmlns:xlink="http://www.w3.org/1999/xlink" xmlns:svgjs="http://svgjs.dev/svgjs" width="2000" height="2000" preserveAspectRatio="none" viewBox="0 0 2000 2000"><g mask="url(&quot;#SvgjsMask1011&quot;)" fill="none"><rect width="2000" height="2000" x="0" y="0" fill="rgba(29, 191, 115, 1)"></rect><path d="M0,679.405C140.143,687.473,284.501,700.582,410.603,638.911C544.296,573.527,658.012,464.105,718.384,328.075C778.461,192.71,794.334,31.736,741.477,-106.608C692.053,-235.969,537.822,-282.81,445.537,-386.06C355.283,-487.038,339,-674.759,206.914,-704.684C72.887,-735.049,-32.529,-587.487,-153.187,-521.707C-245.689,-471.277,-339.388,-431.993,-419.27,-363.3C-510.999,-284.419,-603.798,-204.986,-651.022,-93.603C-707.14,38.757,-763.506,190.866,-710.962,324.685C-658.084,459.357,-510.766,528.729,-381.304,593.321C-262.3,652.696,-132.774,671.761,0,679.405" fill="#17995c"></path><path d="M2000 2644.784C2125.007 2624.7129999999997 2252.081 2625.692 2363.672 2565.884 2481.435 2502.768 2578.045 2409.503 2649.563 2296.646 2728.923 2171.413 2795.12 2034.002 2794.68 1885.742 2794.206 1725.777 2737.861 1571.024 2647.0209999999997 1439.353 2549.185 1297.54 2423.601 1168.1860000000001 2260.781 1111.8609999999999 2094.428 1054.313 1896.815 1040.143 1743.614 1126.8310000000001 1595.9479999999999 1210.387 1583.655 1415.4270000000001 1482.962 1551.984 1393.182 1673.74 1231.108 1738.559 1186.057 1882.973 1138.51 2035.388 1168.462 2204.233 1234.0810000000001 2349.784 1299.8780000000002 2495.7309999999998 1403.246 2638.563 1552.641 2696.1040000000003 1695.603 2751.167 1848.737 2669.071 2000 2644.784" fill="#29df8a"></path></g><defs><mask id="SvgjsMask1011"><rect width="2000" height="2000" fill="#ffffff"></rect></mask></defs></svg>