<svg xmlns="http://www.w3.org/2000/svg" version="1.1" xmlns:xlink="http://www.w3.org/1999/xlink" xmlns:svgjs="http://svgjs.dev/svgjs" width="1440" height="560" preserveAspectRatio="none" viewBox="0 0 1440 560"><g mask="url(&quot;#SvgjsMask1019&quot;)" fill="none"><rect width="1440" height="560" x="0" y="0" fill="rgba(3, 59, 36, 1)"></rect><path d="M 0,266 C 96,275 288,359.6 480,311 C 672,262.4 768,4.2 960,23 C 1152,41.8 1344,328.6 1440,405L1440 560L0 560z" fill="rgba(23, 154, 94, 1)"></path><path d="M 0,300 C 96,286.2 288,189 480,231 C 672,273 768,511.6 960,510 C 1152,508.4 1344,280.4 1440,223L1440 560L0 560z" fill="rgba(20, 196, 115, 1)"></path><path d="M 0,200 C 96,244.8 288,429.2 480,424 C 672,418.8 768,199 960,174 C 1152,149 1344,274 1440,299L1440 560L0 560z" fill="rgba(30, 233, 140, 1)"></path></g><defs><mask id="SvgjsMask1019"><rect width="1440" height="560" fill="#ffffff"></rect></mask></defs></svg>