<svg xmlns="http://www.w3.org/2000/svg" version="1.1" xmlns:xlink="http://www.w3.org/1999/xlink" xmlns:svgjs="http://svgjs.dev/svgjs" width="1440" height="560" preserveAspectRatio="none" viewBox="0 0 1440 560"><g mask="url(&quot;#SvgjsMask1002&quot;)" fill="none"><rect width="1440" height="560" x="0" y="0" fill="rgba(29, 191, 115, 1)"></rect><path d="M -516.5720783330516,376 C -420.57,317.2 -228.57,88.4 -36.572078333051614,82 C 155.43,75.6 251.43,330.8 443.4279216669484,344 C 635.43,357.2 731.43,155 923.4279216669484,148 C 1115.43,141 1300.11,307 1403.4279216669484,309 C 1506.74,311 1432.69,188.2 1440,158" stroke="rgba(37, 255, 153, 1)" stroke-width="2"></path><path d="M -30.402913751167034,325 C 65.6,306.6 257.6,222.8 449.59708624883297,233 C 641.6,243.2 737.6,381 929.597086248833,376 C 1121.6,371 1217.6,208.8 1409.597086248833,208 C 1601.6,207.2 1883.52,362.4 1889.597086248833,372 C 1895.68,381.6 1529.92,279.2 1440,256" stroke="rgba(37, 255, 153, 1)" stroke-width="2"></path><path d="M -536.4286575453863,82 C -440.43,146.6 -248.43,405.2 -56.428657545386294,405 C 135.57,404.8 231.57,103.4 423.5713424546137,81 C 615.57,58.6 711.57,295 903.5713424546137,293 C 1095.57,291 1276.29,53.8 1383.5713424546136,71 C 1490.86,88.2 1428.71,317.4 1440,379" stroke="rgba(37, 255, 153, 1)" stroke-width="2"></path><path d="M -473.81017280345134,308 C -377.81,274.6 -185.81,127.6 6.189827196548663,141 C 198.19,154.4 294.19,354.8 486.18982719654866,375 C 678.19,395.2 774.19,236.2 966.1898271965487,242 C 1158.19,247.8 1351.43,402.2 1446.1898271965488,404 C 1540.95,405.8 1441.24,281.6 1440,251" stroke="rgba(37, 255, 153, 1)" stroke-width="2"></path></g><defs><mask id="SvgjsMask1002"><rect width="1440" height="560" fill="#ffffff"></rect></mask></defs></svg>